<svg width="26" height="34" viewBox="0 0 26 34" fill="none" xmlns="http://www.w3.org/2000/svg">
<rect width="25.2898" height="33.6315" rx="2" fill="black"/>
<path fill-rule="evenodd" clip-rule="evenodd" d="M16.5552 24.1439C16.5552 25.0183 15.8239 25.7274 14.922 25.7274H10.3678C9.46589 25.7274 8.73502 25.0183 8.73502 24.1439V21.2052C8.73502 20.3307 9.46589 19.6216 10.3678 19.6216H14.922C15.8239 19.6216 16.5552 20.3307 16.5552 21.2052V24.1439ZM8.73502 9.47768C8.73502 8.60279 9.46589 7.89416 10.3678 7.89416H14.922C15.8239 7.89416 16.5552 8.60279 16.5552 9.47768V11.6041C16.5552 12.4789 15.8239 13.1876 14.922 13.1876H10.3678C9.46589 13.1876 8.73502 12.4789 8.73502 11.6041V9.47768ZM21.2898 11.7788V8.38442C21.2898 5.96153 19.2667 4 16.7678 4H8.5225C6.02357 4 4 5.96153 4 8.38442V11.7788C4 13.5637 5.09289 15.0842 6.66064 15.7711V16.3987C5.09289 17.0855 4 18.6155 4 20.3909V25.2466C4 27.6695 6.02357 29.6315 8.5225 29.6315H16.7678C19.2667 29.6315 21.2898 27.6695 21.2898 25.2466V20.3909C21.2898 18.6155 20.1974 17.0855 18.6291 16.3987V15.7711C20.1974 15.0842 21.2898 13.5542 21.2898 11.7788V11.7788Z" fill="#FEFEFE"/>
</svg>
