<svg width="72" height="34" viewBox="0 0 72 34" fill="none" xmlns="http://www.w3.org/2000/svg">
<rect width="71.7439" height="33.6315" rx="2" fill="black"/>
<path fill-rule="evenodd" clip-rule="evenodd" d="M16.5552 24.1439C16.5552 25.0183 15.8239 25.7274 14.922 25.7274H10.3678C9.46589 25.7274 8.73502 25.0183 8.73502 24.1439V21.2052C8.73502 20.3307 9.46589 19.6216 10.3678 19.6216H14.922C15.8239 19.6216 16.5552 20.3307 16.5552 21.2052V24.1439ZM8.73502 9.47768C8.73502 8.60279 9.46589 7.89416 10.3678 7.89416H14.922C15.8239 7.89416 16.5552 8.60279 16.5552 9.47768V11.6041C16.5552 12.4789 15.8239 13.1876 14.922 13.1876H10.3678C9.46589 13.1876 8.73502 12.4789 8.73502 11.6041V9.47768ZM21.2898 11.7788V8.38442C21.2898 5.96153 19.2667 4 16.7678 4H8.5225C6.02357 4 4 5.96153 4 8.38442V11.7788C4 13.5637 5.09289 15.0842 6.66064 15.7711V16.3987C5.09289 17.0855 4 18.6155 4 20.3909V25.2466C4 27.6695 6.02357 29.6315 8.5225 29.6315H16.7678C19.2667 29.6315 21.2898 27.6695 21.2898 25.2466V20.3909C21.2898 18.6155 20.1974 17.0855 18.6291 16.3987V15.7711C20.1974 15.0842 21.2898 13.5542 21.2898 11.7788V11.7788Z" fill="#FEFEFE"/>
<path fill-rule="evenodd" clip-rule="evenodd" d="M43.3438 27.766H49.8771V25.6975H45.5662V24.1035H49.0329V22.0776H45.5662V20.4831H49.8771V18.415H43.3438V27.766Z" fill="#FEFEFE"/>
<path fill-rule="evenodd" clip-rule="evenodd" d="M56.6329 10.6237H54.366V6.87451H52.0996V16.2255H54.366V12.6918H56.6329V16.2255H58.8997V6.87451H56.6329V10.6237Z" fill="#FEFEFE"/>
<path fill-rule="evenodd" clip-rule="evenodd" d="M52.1436 27.766H58.6769V25.6975H54.366V24.1035H57.8327V22.0776H54.366V20.4831H58.6769V18.415H52.1436V27.766Z" fill="#FEFEFE"/>
<path fill-rule="evenodd" clip-rule="evenodd" d="M64.633 22.5086H62.9441V20.3969H64.633C65.1665 20.3969 65.5661 20.5693 65.5661 21.3883C65.5661 22.1633 65.2549 22.5086 64.633 22.5086ZM64.8998 18.4146H60.7217V27.766H62.9441V24.4479H64.8998C65.9663 24.4479 67.7441 23.8444 67.7441 21.4314C67.7441 18.8456 66.0107 18.4146 64.8998 18.4146" fill="#FEFEFE"/>
<path fill-rule="evenodd" clip-rule="evenodd" d="M46.5431 12.6489H47.8763C47.8763 14.0278 47.3878 14.3731 46.4542 14.3731C45.4321 14.3731 45.0764 13.8127 45.0764 12.6489V9.84801C45.0764 9.07211 45.6544 8.59843 46.4542 8.59843C47.3878 8.59843 47.7429 9.1588 47.7429 9.84801H50.0543C50.0543 8.25359 48.9433 6.65869 46.4542 6.65869C43.921 6.65869 42.8096 7.86564 42.8096 9.84801V12.6489C42.8096 14.2433 43.3431 16.3119 46.4542 16.3119C49.4319 16.3119 50.0987 14.5451 50.0987 12.7356V10.9252H46.5431V12.6489Z" fill="#FEFEFE"/>
<path fill-rule="evenodd" clip-rule="evenodd" d="M30.6318 22.1204C29.5648 21.9484 29.2986 21.4743 29.2986 21.1725C29.2986 20.5695 29.7432 20.2678 30.4985 20.2678C31.3432 20.2678 31.565 20.7846 31.565 21.0863H33.6985C33.6985 20.0092 32.9427 18.1992 30.4985 18.1992C27.7875 18.1992 27.0762 19.9225 27.0762 21.2156C27.0762 22.7238 28.321 23.6717 30.1428 23.9303C30.7652 24.0165 31.6539 24.189 31.6539 24.9648C31.6539 25.5678 31.2987 25.9558 30.4985 25.9558C29.965 25.9558 29.2986 25.8696 29.2986 24.7062H27.0762C27.0762 25.8696 27.3874 27.8946 30.4985 27.8946C33.5651 27.8946 33.9208 25.7834 33.9208 24.9217C33.9208 23.1118 32.6764 22.4657 30.6318 22.1204" fill="#FEFEFE"/>
<path fill-rule="evenodd" clip-rule="evenodd" d="M33.7433 14.1144H29.4319V12.52H32.8986V10.4941H29.4319V8.90012H33.7433V6.83154H27.21V16.1825H33.7433V14.1144Z" fill="#FEFEFE"/>
<path fill-rule="evenodd" clip-rule="evenodd" d="M38.0549 18.415H35.833V27.766H41.2999V25.6112H38.0549V18.415Z" fill="#FEFEFE"/>
<path fill-rule="evenodd" clip-rule="evenodd" d="M62.944 16.2255H65.2549V9.0293H67.2994V6.87451H60.8555V9.0293H62.944V16.2255Z" fill="#FEFEFE"/>
<path fill-rule="evenodd" clip-rule="evenodd" d="M37.3881 14.2H35.8325V16.225H41.21V14.2H39.6105V8.89997H41.1656V6.87402H35.7881V8.89997H37.3881V14.2Z" fill="#FEFEFE"/>
</svg>
